<svg width="109" height="16" viewBox="0 0 109 16" fill="none" xmlns="http://www.w3.org/2000/svg">
<path d="M2.29297 10.8711C2.33854 11.6849 2.5306 12.3457 2.86914 12.8535C3.51367 13.804 4.64974 14.2793 6.27734 14.2793C7.00651 14.2793 7.67057 14.1751 8.26953 13.9668C9.42839 13.5632 10.0078 12.8405 10.0078 11.7988C10.0078 11.0176 9.76367 10.4609 9.27539 10.1289C8.7806 9.80339 8.00586 9.52018 6.95117 9.2793L5.00781 8.83984C3.73828 8.55339 2.83984 8.23763 2.3125 7.89258C1.40104 7.29362 0.945312 6.39844 0.945312 5.20703C0.945312 3.91797 1.39128 2.86003 2.2832 2.0332C3.17513 1.20638 4.43815 0.792969 6.07227 0.792969C7.57617 0.792969 8.85221 1.15755 9.90039 1.88672C10.9551 2.60938 11.4824 3.76823 11.4824 5.36328H9.65625C9.55859 4.59505 9.35026 4.00586 9.03125 3.5957C8.4388 2.84701 7.43294 2.47266 6.01367 2.47266C4.86784 2.47266 4.04427 2.71354 3.54297 3.19531C3.04167 3.67708 2.79102 4.23698 2.79102 4.875C2.79102 5.57812 3.08398 6.09245 3.66992 6.41797C4.05404 6.6263 4.92318 6.88672 6.27734 7.19922L8.28906 7.6582C9.25911 7.87956 10.0078 8.18229 10.5352 8.56641C11.4466 9.23698 11.9023 10.2103 11.9023 11.4863C11.9023 13.0749 11.3229 14.2109 10.1641 14.8945C9.01172 15.5781 7.67057 15.9199 6.14062 15.9199C4.35677 15.9199 2.96029 15.4642 1.95117 14.5527C0.942057 13.6478 0.447266 12.4206 0.466797 10.8711H2.29297ZM14.1289 5.04102H15.8672V6.52539C16.2839 6.01107 16.6615 5.63672 17 5.40234C17.5794 5.00521 18.237 4.80664 18.9727 4.80664C19.806 4.80664 20.4766 5.01172 20.9844 5.42188C21.2708 5.65625 21.5312 6.0013 21.7656 6.45703C22.1562 5.89714 22.6152 5.48372 23.1426 5.2168C23.6699 4.94336 24.2624 4.80664 24.9199 4.80664C26.3262 4.80664 27.2832 5.31445 27.791 6.33008C28.0645 6.87695 28.2012 7.61263 28.2012 8.53711V15.5H26.375V8.23438C26.375 7.53776 26.1992 7.05924 25.8477 6.79883C25.5026 6.53841 25.0794 6.4082 24.5781 6.4082C23.888 6.4082 23.2923 6.63932 22.791 7.10156C22.2962 7.5638 22.0488 8.33529 22.0488 9.41602V15.5H20.2617V8.67383C20.2617 7.96419 20.1771 7.44661 20.0078 7.12109C19.7409 6.63281 19.2428 6.38867 18.5137 6.38867C17.8496 6.38867 17.2441 6.64583 16.6973 7.16016C16.1569 7.67448 15.8867 8.60547 15.8867 9.95312V15.5H14.1289V5.04102ZM32.1367 12.7168C32.1367 13.2246 32.3223 13.625 32.6934 13.918C33.0645 14.2109 33.5039 14.3574 34.0117 14.3574C34.6302 14.3574 35.2292 14.2142 35.8086 13.9277C36.7852 13.4525 37.2734 12.6745 37.2734 11.5938V10.1777C37.0586 10.3145 36.7819 10.4284 36.4434 10.5195C36.1048 10.6107 35.7728 10.6758 35.4473 10.7148L34.3828 10.8516C33.7448 10.9362 33.2663 11.0697 32.9473 11.252C32.4069 11.5579 32.1367 12.0462 32.1367 12.7168ZM36.3945 9.16211C36.7982 9.11003 37.0684 8.94076 37.2051 8.6543C37.2832 8.49805 37.3223 8.27344 37.3223 7.98047C37.3223 7.38151 37.1074 6.94857 36.6777 6.68164C36.2546 6.4082 35.6458 6.27148 34.8516 6.27148C33.9336 6.27148 33.2826 6.51888 32.8984 7.01367C32.6836 7.28711 32.5436 7.69401 32.4785 8.23438H30.8379C30.8704 6.94531 31.2871 6.05013 32.0879 5.54883C32.8952 5.04102 33.8294 4.78711 34.8906 4.78711C36.1211 4.78711 37.1204 5.02148 37.8887 5.49023C38.6504 5.95898 39.0312 6.68815 39.0312 7.67773V13.7031C39.0312 13.8854 39.0671 14.0319 39.1387 14.1426C39.2168 14.2533 39.3763 14.3086 39.6172 14.3086C39.6953 14.3086 39.7832 14.3053 39.8809 14.2988C39.9785 14.2858 40.0827 14.2695 40.1934 14.25V15.5488C39.9199 15.627 39.7116 15.6758 39.5684 15.6953C39.4251 15.7148 39.2298 15.7246 38.9824 15.7246C38.377 15.7246 37.9375 15.5098 37.6641 15.0801C37.5208 14.8522 37.4199 14.5299 37.3613 14.1133C37.0033 14.582 36.4889 14.9889 35.8184 15.334C35.1478 15.679 34.4089 15.8516 33.6016 15.8516C32.6315 15.8516 31.8372 15.5586 31.2188 14.9727C30.6068 14.3802 30.3008 13.6413 30.3008 12.7559C30.3008 11.7858 30.6035 11.0339 31.209 10.5C31.8145 9.96615 32.6087 9.63737 33.5918 9.51367L36.3945 9.16211ZM41.9707 5.04102H43.6406V6.84766C43.7773 6.49609 44.1126 6.06966 44.6465 5.56836C45.1803 5.06055 45.7956 4.80664 46.4922 4.80664C46.5247 4.80664 46.5801 4.8099 46.6582 4.81641C46.7363 4.82292 46.8698 4.83594 47.0586 4.85547V6.71094C46.9544 6.69141 46.8568 6.67839 46.7656 6.67188C46.681 6.66536 46.5866 6.66211 46.4824 6.66211C45.597 6.66211 44.9167 6.94857 44.4414 7.52148C43.9661 8.08789 43.7285 8.74219 43.7285 9.48438V15.5H41.9707V5.04102ZM48.9336 2.12109H50.7109V5.04102H52.3809V6.47656H50.7109V13.3027C50.7109 13.6673 50.8346 13.9115 51.082 14.0352C51.2188 14.1068 51.4466 14.1426 51.7656 14.1426C51.8503 14.1426 51.9414 14.1426 52.0391 14.1426C52.1367 14.1361 52.2507 14.1263 52.3809 14.1133V15.5C52.179 15.5586 51.9674 15.6009 51.7461 15.627C51.5312 15.653 51.2969 15.666 51.043 15.666C50.2227 15.666 49.666 15.4577 49.373 15.041C49.0801 14.6178 48.9336 14.071 48.9336 13.4004V6.47656H47.5176V5.04102H48.9336V2.12109ZM55.6523 10.8711C55.6979 11.6849 55.89 12.3457 56.2285 12.8535C56.873 13.804 58.0091 14.2793 59.6367 14.2793C60.3659 14.2793 61.0299 14.1751 61.6289 13.9668C62.7878 13.5632 63.3672 12.8405 63.3672 11.7988C63.3672 11.0176 63.123 10.4609 62.6348 10.1289C62.14 9.80339 61.3652 9.52018 60.3105 9.2793L58.3672 8.83984C57.0977 8.55339 56.1992 8.23763 55.6719 7.89258C54.7604 7.29362 54.3047 6.39844 54.3047 5.20703C54.3047 3.91797 54.7507 2.86003 55.6426 2.0332C56.5345 1.20638 57.7975 0.792969 59.4316 0.792969C60.9355 0.792969 62.2116 1.15755 63.2598 1.88672C64.3145 2.60938 64.8418 3.76823 64.8418 5.36328H63.0156C62.918 4.59505 62.7096 4.00586 62.3906 3.5957C61.7982 2.84701 60.7923 2.47266 59.373 2.47266C58.2272 2.47266 57.4036 2.71354 56.9023 3.19531C56.401 3.67708 56.1504 4.23698 56.1504 4.875C56.1504 5.57812 56.4434 6.09245 57.0293 6.41797C57.4134 6.6263 58.2826 6.88672 59.6367 7.19922L61.6484 7.6582C62.6185 7.87956 63.3672 8.18229 63.8945 8.56641C64.806 9.23698 65.2617 10.2103 65.2617 11.4863C65.2617 13.0749 64.6823 14.2109 63.5234 14.8945C62.3711 15.5781 61.0299 15.9199 59.5 15.9199C57.7161 15.9199 56.3197 15.4642 55.3105 14.5527C54.3014 13.6478 53.8066 12.4206 53.8262 10.8711H55.6523ZM67.7715 1.1543H69.7344V7.08203H77.1953V1.1543H79.1582V15.5H77.1953V8.79102H69.7344V15.5H67.7715V1.1543ZM88.3672 0.763672C90.8997 0.763672 92.7747 1.57747 93.9922 3.20508C94.9427 4.47461 95.418 6.09896 95.418 8.07812C95.418 10.2201 94.8743 12.0007 93.7871 13.4199C92.5111 15.0866 90.6914 15.9199 88.3281 15.9199C86.1211 15.9199 84.3861 15.1908 83.123 13.7324C81.9967 12.3262 81.4336 10.5488 81.4336 8.40039C81.4336 6.46029 81.9154 4.80013 82.8789 3.41992C84.1159 1.64909 85.9453 0.763672 88.3672 0.763672ZM88.5625 14.1816C90.2747 14.1816 91.5117 13.5697 92.2734 12.3457C93.0417 11.1152 93.4258 9.70247 93.4258 8.10742C93.4258 6.42122 92.9831 5.0638 92.0977 4.03516C91.2188 3.00651 90.0143 2.49219 88.4844 2.49219C87 2.49219 85.7891 3.00326 84.8516 4.02539C83.9141 5.04102 83.4453 6.54167 83.4453 8.52734C83.4453 10.1159 83.8457 11.457 84.6465 12.5508C85.4538 13.638 86.7591 14.1816 88.5625 14.1816ZM97.9277 1.1543H104.383C105.659 1.1543 106.688 1.51562 107.469 2.23828C108.25 2.95443 108.641 3.96354 108.641 5.26562C108.641 6.38542 108.292 7.36198 107.596 8.19531C106.899 9.02214 105.828 9.43555 104.383 9.43555H99.8711V15.5H97.9277V1.1543ZM106.678 5.27539C106.678 4.2207 106.287 3.50456 105.506 3.12695C105.076 2.92513 104.487 2.82422 103.738 2.82422H99.8711V7.79492H103.738C104.611 7.79492 105.317 7.60938 105.857 7.23828C106.404 6.86719 106.678 6.21289 106.678 5.27539Z" fill="white"/>
</svg>
